<?xml version="1.0"?>
<svg width="640" height="480" xmlns="http://www.w3.org/2000/svg" xmlns:svg="http://www.w3.org/2000/svg" xmlns:se="http://svg-edit.googlecode.com" xmlns:xlink="http://www.w3.org/1999/xlink">
 <!-- Created with SVG-edit - https://github.com/SVG-Edit/svgedit-->
 <defs>
  <symbol id="svg_175" viewBox="0 0 116 88.5" xmlns="http://www.w3.org/2000/svg">
   <g data-name="Grupo 89" id="svg_1" transform="translate(-360 -81.5)">
    <g id="svg_2" transform="translate(379 -49.99)">
     <g data-name="Grupo 88" id="svg_3" transform="translate(0 131.99)">
      <g data-name="Grupo 2" id="svg_171" transform="translate(11.858 29.404)">
       <path d="m114.5,359.459c-6,0 -12.74,-4.59 -12.74,-4.59a93.344,93.344 0 0 0 12.74,1.5c4.664,0 5.994,-1.592 5.994,-3.747c0,-5.245 -8.908,-6.06 -13.416,-6.747c-4.425,-2.463 -9.1,-3.995 -16.433,-4.613a7.191,7.191 0 0 1 -0.232,1.274c-0.6,2.122 -5.419,19.1 -6.022,21.223c6.823,3.1 20.947,7.6 27.11,7.6c8.993,0 32.973,-11.991 32.973,-14.988s-3,-4.5 -6,-4.5c-5.991,0 -17.982,7.588 -23.974,7.588z" data-name="Caminho 34" fill="#ffcc80" id="svg_174" transform="translate(-84.39 -341.26)"/>
       <g data-name="Grupo 1" id="svg_172">
        <path d="m114.5,359.459c-6,0 -12.74,-4.59 -12.74,-4.59a93.344,93.344 0 0 0 12.74,1.5c4.664,0 5.994,-1.592 5.994,-3.747c0,-5.245 -8.908,-6.06 -13.416,-6.747c-4.425,-2.463 -9.1,-3.995 -16.433,-4.613a7.191,7.191 0 0 1 -0.232,1.274c-0.6,2.122 -5.419,19.1 -6.022,21.223c6.823,3.1 20.947,7.6 27.11,7.6c8.993,0 32.973,-11.991 32.973,-14.988s-3,-4.5 -6,-4.5c-5.991,0 -17.982,7.588 -23.974,7.588z" data-name="Caminho 35" fill="rgba(0,0,0,0)" id="svg_173" stroke="rgba(0,0,0,0)" transform="translate(-84.39 -341.26)"/>
       </g>
      </g>
      <g data-name="Grupo 4" id="svg_167" transform="translate(0 23.53)">
       <path d="m2.248,329.425a2.249,2.249 0 0 1 -2.248,-2.248l0,-25.477a2.249,2.249 0 0 1 2.248,-2.248c10.506,0 15.4,3.645 15.6,3.8a2.246,2.246 0 0 1 0.807,2.373c-0.6,2.214 -5.4,19.927 -6,22.14a2.248,2.248 0 0 1 -2.169,1.661l-8.238,-0.001z" data-name="Caminho 36" fill="#3f3d56" id="svg_170" transform="translate(0 -299.45)"/>
       <g data-name="Grupo 3" id="svg_168">
        <path d="m2.248,329.425a2.249,2.249 0 0 1 -2.248,-2.248l0,-25.477a2.249,2.249 0 0 1 2.248,-2.248c10.506,0 15.4,3.645 15.6,3.8a2.246,2.246 0 0 1 0.807,2.373c-0.6,2.214 -5.4,19.927 -6,22.14a2.248,2.248 0 0 1 -2.169,1.661l-8.238,-0.001z" data-name="Caminho 37" fill="#3f3d56" id="svg_169" stroke="rgba(0,0,0,0)" transform="translate(0 -299.45)"/>
       </g>
      </g>
      <g data-name="Grupo 6" id="svg_163" transform="translate(27.052 0)">
       <path d="m211.717,168.387c-1.68,-1.47 -3.3,-2.85 -4.73,-4.068c0,0 -0.006,-0.006 -0.007,-0.007c-4.19,-3.57 -7.808,-6.653 -10.326,-9.691c-2.814,-3.4 -4.124,-6.615 -4.124,-10.134a13,13 0 0 1 3.3,-8.877a11.18,11.18 0 0 1 8.318,-3.621a10.455,10.455 0 0 1 6.535,2.257a13.328,13.328 0 0 1 2.641,2.754a13.328,13.328 0 0 1 2.642,-2.758a10.458,10.458 0 0 1 6.535,-2.257a11.185,11.185 0 0 1 8.32,3.621a13,13 0 0 1 3.3,8.877c0,3.518 -1.311,6.737 -4.125,10.134c-2.518,3.038 -6.135,6.121 -10.325,9.691c-1.432,1.22 -3.053,2.6 -4.738,4.075a2.44,2.44 0 0 1 -3.215,0l-0.001,0.004zm-14.1,-31.126a10.577,10.577 0 0 0 -2.654,7.226c0,2.959 1.1,5.6 3.565,8.579c2.383,2.875 5.927,5.894 10.03,9.392l0.008,0.006c1.435,1.224 3.06,2.609 4.753,4.089c1.7,-1.482 3.33,-2.871 4.767,-4.1c4.1,-3.5 7.648,-6.515 10.03,-9.39c2.465,-2.975 3.565,-5.62 3.565,-8.579a10.577,10.577 0 0 0 -2.654,-7.226a8.776,8.776 0 0 0 -6.528,-2.835a8.074,8.074 0 0 0 -5.044,1.747a11.808,11.808 0 0 0 -2.812,3.253a1.538,1.538 0 0 1 -2.642,0a11.808,11.808 0 0 0 -2.812,-3.253a8.074,8.074 0 0 0 -5.044,-1.747a8.776,8.776 0 0 0 -6.526,2.839l-0.002,-0.001z" data-name="Caminho 38" fill="#50dcc2" id="svg_166" transform="translate(-192.53 -131.99)"/>
       <g data-name="Grupo 5" id="svg_164">
        <path d="m211.717,168.387c-1.68,-1.47 -3.3,-2.85 -4.73,-4.068c0,0 -0.006,-0.006 -0.007,-0.007c-4.19,-3.57 -7.808,-6.653 -10.326,-9.691c-2.814,-3.4 -4.124,-6.615 -4.124,-10.134a13,13 0 0 1 3.3,-8.877a11.18,11.18 0 0 1 8.318,-3.621a10.455,10.455 0 0 1 6.535,2.257a13.328,13.328 0 0 1 2.641,2.754a13.328,13.328 0 0 1 2.642,-2.758a10.458,10.458 0 0 1 6.535,-2.257a11.185,11.185 0 0 1 8.32,3.621a13,13 0 0 1 3.3,8.877c0,3.518 -1.311,6.737 -4.125,10.134c-2.518,3.038 -6.135,6.121 -10.325,9.691c-1.432,1.22 -3.053,2.6 -4.738,4.075a2.44,2.44 0 0 1 -3.215,0l-0.001,0.004zm-14.1,-31.126a10.577,10.577 0 0 0 -2.654,7.226c0,2.959 1.1,5.6 3.565,8.579c2.383,2.875 5.927,5.894 10.03,9.392l0.008,0.006c1.435,1.224 3.06,2.609 4.753,4.089c1.7,-1.482 3.33,-2.871 4.767,-4.1c4.1,-3.5 7.648,-6.515 10.03,-9.39c2.465,-2.975 3.565,-5.62 3.565,-8.579a10.577,10.577 0 0 0 -2.654,-7.226a8.776,8.776 0 0 0 -6.528,-2.835a8.074,8.074 0 0 0 -5.044,1.747a11.808,11.808 0 0 0 -2.812,3.253a1.538,1.538 0 0 1 -2.642,0a11.808,11.808 0 0 0 -2.812,-3.253a8.074,8.074 0 0 0 -5.044,-1.747a8.776,8.776 0 0 0 -6.526,2.839l-0.002,-0.001z" data-name="Caminho 39" fill="#50dcc2" id="svg_165" stroke="rgba(0,0,0,0)" transform="translate(-192.53 -131.99)"/>
       </g>
      </g>
      <g data-name="Grupo 87" id="svg_4" transform="translate(30.971 8.558)">
       <g data-name="Grupo 43" id="svg_90" transform="translate(0 0.001)">
        <g data-name="Grupo 8" id="svg_159" transform="translate(1.938 0.253)">
         <path d="m243.142,194.953c-0.916,0.363 -1.12,-0.253 -3.034,-0.253s-2.117,0.615 -3.034,0.253l-2.528,0q-0.3,5.716 -0.337,6.351a4.993,4.993 0 0 0 2.982,4.35l5.834,0a4.993,4.993 0 0 0 2.982,-4.35q-0.034,-0.637 -0.337,-6.351l-2.528,0z" data-name="Caminho 40" fill="#f5dcb4" id="svg_162" transform="translate(-234.21 -194.7)"/>
         <g data-name="Grupo 7" id="svg_160">
          <path d="m243.142,194.953c-0.916,0.363 -1.12,-0.253 -3.034,-0.253s-2.117,0.615 -3.034,0.253l-2.528,0q-0.3,5.716 -0.337,6.351a4.993,4.993 0 0 0 2.982,4.35l5.834,0a4.993,4.993 0 0 0 2.982,-4.35q-0.034,-0.637 -0.337,-6.351l-2.528,0z" data-name="Caminho 41" fill="rgba(0,0,0,0)" id="svg_161" stroke="rgba(0,0,0,0)" transform="translate(-234.21 -194.7)"/>
         </g>
        </g>
        <g data-name="Grupo 10" id="svg_155" transform="translate(10.87)">
         <path d="m300.909,200.549a0.5,0.5 0 0 0 0.837,-0.211a7.42,7.42 0 0 0 0.267,-2.32c-0.031,-1.485 0.569,-1.579 0.569,-1.579s-0.757,-3.539 -3.034,-3.539a4.988,4.988 0 0 0 -1.769,0.506c2.848,0.851 1.298,5.245 3.13,7.143z" data-name="Caminho 42" fill="#965a50" id="svg_158" transform="translate(-297.78 -192.9)"/>
         <g data-name="Grupo 9" id="svg_156">
          <path d="m300.909,200.549a0.5,0.5 0 0 0 0.837,-0.211a7.42,7.42 0 0 0 0.267,-2.32c-0.031,-1.485 0.569,-1.579 0.569,-1.579s-0.757,-3.539 -3.034,-3.539a4.988,4.988 0 0 0 -1.769,0.506c2.848,0.851 1.298,5.245 3.13,7.143z" data-name="Caminho 43" fill="rgba(0,0,0,0)" id="svg_157" stroke="rgba(0,0,0,0)" transform="translate(-297.78 -192.9)"/>
         </g>
        </g>
        <g data-name="Grupo 12" id="svg_151" transform="translate(4.297 4.803)">
         <path d="m251.885,229.355a0.887,0.887 0 0 1 -0.885,-0.884l0,-0.506a0.888,0.888 0 0 1 0.885,-0.885l0,0a0.888,0.888 0 0 1 0.885,0.885l0,0.506a0.887,0.887 0 0 1 -0.885,0.884z" data-name="Caminho 44" fill="#4b3f4e" id="svg_154" transform="translate(-251 -227.08)"/>
         <g data-name="Grupo 11" id="svg_152">
          <path d="m251.885,229.355a0.887,0.887 0 0 1 -0.885,-0.884l0,-0.506a0.888,0.888 0 0 1 0.885,-0.885l0,0a0.888,0.888 0 0 1 0.885,0.885l0,0.506a0.887,0.887 0 0 1 -0.885,0.884z" data-name="Caminho 45" fill="rgba(0,0,0,0)" id="svg_153" stroke="rgba(0,0,0,0)" transform="translate(-251 -227.08)"/>
         </g>
        </g>
        <g data-name="Grupo 14" id="svg_147" transform="translate(5.056 4.803)">
         <path d="m256.4,227.093l0,1.252a0.506,0.506 0 0 0 1.012,0l0,-0.379a0.888,0.888 0 0 0 -0.885,-0.885a0.939,0.939 0 0 0 -0.127,0.012z" data-name="Caminho 46" fill="#5d5360" id="svg_150" transform="translate(-256.4 -227.08)"/>
         <g data-name="Grupo 13" id="svg_148">
          <path d="m256.4,227.093l0,1.252a0.506,0.506 0 0 0 1.012,0l0,-0.379a0.888,0.888 0 0 0 -0.885,-0.885a0.939,0.939 0 0 0 -0.127,0.012z" data-name="Caminho 47" fill="rgba(0,0,0,0)" id="svg_149" stroke="rgba(0,0,0,0)" transform="translate(-256.4 -227.08)"/>
         </g>
        </g>
        <g data-name="Grupo 16" id="svg_143" transform="translate(4.803 5.056)">
         <path d="m254.979,228.88a0.379,0.379 0 1 0 0.379,0.379a0.38,0.38 0 0 0 -0.379,-0.379z" data-name="Caminho 48" fill="#fff" id="svg_146" transform="translate(-254.6 -228.88)"/>
         <g data-name="Grupo 15" id="svg_144">
          <path d="m254.979,228.88a0.379,0.379 0 1 0 0.379,0.379a0.38,0.38 0 0 0 -0.379,-0.379z" data-name="Caminho 49" fill="rgba(0,0,0,0)" id="svg_145" stroke="rgba(0,0,0,0)" transform="translate(-254.6 -228.88)"/>
         </g>
        </g>
        <g data-name="Grupo 18" id="svg_139" transform="translate(9.605 4.803)">
         <path d="m289.665,229.355a0.887,0.887 0 0 1 -0.885,-0.884l0,-0.506a0.888,0.888 0 0 1 0.885,-0.885l0,0a0.888,0.888 0 0 1 0.885,0.885l0,0.506a0.888,0.888 0 0 1 -0.885,0.884z" data-name="Caminho 50" fill="#4b3f4e" id="svg_142" transform="translate(-288.78 -227.08)"/>
         <g data-name="Grupo 17" id="svg_140">
          <path d="m289.665,229.355a0.887,0.887 0 0 1 -0.885,-0.884l0,-0.506a0.888,0.888 0 0 1 0.885,-0.885l0,0a0.888,0.888 0 0 1 0.885,0.885l0,0.506a0.888,0.888 0 0 1 -0.885,0.884z" data-name="Caminho 51" fill="rgba(0,0,0,0)" id="svg_141" stroke="rgba(0,0,0,0)" transform="translate(-288.78 -227.08)"/>
         </g>
        </g>
        <g data-name="Grupo 20" id="svg_135" transform="translate(10.364 4.803)">
         <path d="m294.18,227.093l0,1.252a0.506,0.506 0 0 0 1.012,0l0,-0.379a0.888,0.888 0 0 0 -0.885,-0.885a0.939,0.939 0 0 0 -0.127,0.012z" data-name="Caminho 52" fill="#5d5360" id="svg_138" transform="translate(-294.18 -227.08)"/>
         <g data-name="Grupo 19" id="svg_136">
          <path d="m294.18,227.093l0,1.252a0.506,0.506 0 0 0 1.012,0l0,-0.379a0.888,0.888 0 0 0 -0.885,-0.885a0.939,0.939 0 0 0 -0.127,0.012z" data-name="Caminho 53" fill="rgba(0,0,0,0)" id="svg_137" stroke="rgba(0,0,0,0)" transform="translate(-294.18 -227.08)"/>
         </g>
        </g>
        <g data-name="Grupo 22" id="svg_131" transform="translate(10.111 5.056)">
         <path d="m292.759,228.88a0.379,0.379 0 1 0 0.379,0.379a0.38,0.38 0 0 0 -0.379,-0.379z" data-name="Caminho 54" fill="#fff" id="svg_134" transform="translate(-292.38 -228.88)"/>
         <g data-name="Grupo 21" id="svg_132">
          <path d="m292.759,228.88a0.379,0.379 0 1 0 0.379,0.379a0.38,0.38 0 0 0 -0.379,-0.379z" data-name="Caminho 55" fill="rgba(0,0,0,0)" id="svg_133" stroke="rgba(0,0,0,0)" transform="translate(-292.38 -228.88)"/>
         </g>
        </g>
        <g data-name="Grupo 24" id="svg_127" transform="translate(10.87 0.452)">
         <path d="m301.747,203.1a6.141,6.141 0 0 0 0.218,-1.111c-0.5,-0.247 -0.922,-1.038 -1.183,-2.377c-0.474,-2.434 -1.137,-3.792 -3,-3.444c2.847,0.852 1.3,5.245 3.129,7.143a0.5,0.5 0 0 0 0.836,-0.211z" data-name="Caminho 56" fill="#824641" id="svg_130" transform="translate(-297.78 -196.115)"/>
         <g data-name="Grupo 23" id="svg_128">
          <path d="m301.747,203.1a6.141,6.141 0 0 0 0.218,-1.111c-0.5,-0.247 -0.922,-1.038 -1.183,-2.377c-0.474,-2.434 -1.137,-3.792 -3,-3.444c2.847,0.852 1.3,5.245 3.129,7.143a0.5,0.5 0 0 0 0.836,-0.211z" data-name="Caminho 57" fill="rgba(0,0,0,0)" id="svg_129" stroke="rgba(0,0,0,0)" transform="translate(-297.78 -196.115)"/>
         </g>
        </g>
        <g data-name="Grupo 26" id="svg_123" transform="translate(1.938 0.506)">
         <path d="m238.389,207.2a6.172,6.172 0 0 1 -2.452,-3.908c-0.676,-4.857 0.611,-6.31 1.725,-6.68a1.423,1.423 0 0 1 -0.587,-0.114l-2.528,0q-0.3,5.716 -0.337,6.351a4.993,4.993 0 0 0 2.982,4.35l1.197,0.001z" data-name="Caminho 58" fill="#e7c9a5" id="svg_126" transform="translate(-234.21 -196.5)"/>
         <g data-name="Grupo 25" id="svg_124">
          <path d="m238.389,207.2a6.172,6.172 0 0 1 -2.452,-3.908c-0.676,-4.857 0.611,-6.31 1.725,-6.68a1.423,1.423 0 0 1 -0.587,-0.114l-2.528,0q-0.3,5.716 -0.337,6.351a4.993,4.993 0 0 0 2.982,4.35l1.197,0.001z" data-name="Caminho 59" fill="rgba(0,0,0,0)" id="svg_125" stroke="rgba(0,0,0,0)" transform="translate(-234.21 -196.5)"/>
         </g>
        </g>
        <g data-name="Grupo 28" id="svg_119">
         <path d="m222.093,200.549a0.5,0.5 0 0 1 -0.837,-0.211a7.419,7.419 0 0 1 -0.267,-2.32c0.031,-1.485 -0.569,-1.579 -0.569,-1.579s0.757,-3.539 3.034,-3.539a4.989,4.989 0 0 1 1.769,0.506c-2.847,0.851 -1.297,5.245 -3.13,7.143z" data-name="Caminho 60" fill="#965a50" id="svg_122" transform="translate(-220.42 -192.9)"/>
         <g data-name="Grupo 27" id="svg_120">
          <path d="m222.093,200.549a0.5,0.5 0 0 1 -0.837,-0.211a7.419,7.419 0 0 1 -0.267,-2.32c0.031,-1.485 -0.569,-1.579 -0.569,-1.579s0.757,-3.539 3.034,-3.539a4.989,4.989 0 0 1 1.769,0.506c-2.847,0.851 -1.297,5.245 -3.13,7.143z" data-name="Caminho 61" fill="rgba(0,0,0,0)" id="svg_121" stroke="rgba(0,0,0,0)" transform="translate(-220.42 -192.9)"/>
         </g>
        </g>
        <g data-name="Grupo 30" id="svg_115">
         <path d="m223.454,192.9c-2.276,0 -3.034,3.539 -3.034,3.539s0.6,0.094 0.569,1.579c0,0.02 0,0.038 0,0.058c1.456,-5.519 3.691,-4.905 4.151,-4.711a4.71,4.71 0 0 0 -1.686,-0.465z" data-name="Caminho 62" fill="#824641" id="svg_118" transform="translate(-220.42 -192.9)"/>
         <g data-name="Grupo 29" id="svg_116">
          <path d="m223.454,192.9c-2.276,0 -3.034,3.539 -3.034,3.539s0.6,0.094 0.569,1.579c0,0.02 0,0.038 0,0.058c1.456,-5.519 3.691,-4.905 4.151,-4.711a4.71,4.71 0 0 0 -1.686,-0.465z" data-name="Caminho 63" fill="rgba(0,0,0,0)" id="svg_117" stroke="rgba(0,0,0,0)" transform="translate(-220.42 -192.9)"/>
         </g>
        </g>
        <g data-name="Grupo 32" id="svg_111" transform="translate(5.056 9.354)">
         <path d="m261.961,261.492c0,1.117 -1.245,2.022 -2.781,2.022s-2.781,-0.9 -2.781,-2.022s1.245,-2.022 2.781,-2.022s2.781,0.905 2.781,2.022z" data-name="Caminho 64" fill="#bc8e78" id="svg_114" transform="translate(-256.4 -259.47)"/>
         <g data-name="Grupo 31" id="svg_112">
          <path d="m261.961,261.492c0,1.117 -1.245,2.022 -2.781,2.022s-2.781,-0.9 -2.781,-2.022s1.245,-2.022 2.781,-2.022s2.781,0.905 2.781,2.022z" data-name="Caminho 65" fill="rgba(0,0,0,0)" id="svg_113" stroke="rgba(0,0,0,0)" transform="translate(-256.4 -259.47)"/>
         </g>
        </g>
        <g data-name="Grupo 34" id="svg_107" transform="translate(6.572 11.376)">
         <path d="m267.19,275.123a1.265,1.265 0 1 0 2.529,0l0,-1.263l-2.529,0l0,1.263z" data-name="Caminho 66" fill="#ff8087" id="svg_110" transform="translate(-267.19 -273.86)"/>
         <g data-name="Grupo 33" id="svg_108">
          <path d="m267.19,275.123a1.265,1.265 0 1 0 2.529,0l0,-1.263l-2.529,0l0,1.263z" data-name="Caminho 67" fill="rgba(0,0,0,0)" id="svg_109" stroke="rgba(0,0,0,0)" transform="translate(-267.19 -273.86)"/>
         </g>
        </g>
        <g data-name="Grupo 36" id="svg_103" transform="translate(6.572 11.376)">
         <path d="m268.2,274.522l0,0.348a0.253,0.253 0 0 0 0.506,0l0,-0.351a2.706,2.706 0 0 0 1.012,0.327l0,-0.986l-2.528,0l0,0.986a3.985,3.985 0 0 0 1.01,-0.324z" data-name="Caminho 68" fill="#e6646e" id="svg_106" transform="translate(-267.19 -273.86)"/>
         <g data-name="Grupo 35" id="svg_104">
          <path d="m268.2,274.522l0,0.348a0.253,0.253 0 0 0 0.506,0l0,-0.351a2.706,2.706 0 0 0 1.012,0.327l0,-0.986l-2.528,0l0,0.986a3.985,3.985 0 0 0 1.01,-0.324z" data-name="Caminho 69" fill="rgba(0,0,0,0)" id="svg_105" stroke="rgba(0,0,0,0)" transform="translate(-267.19 -273.86)"/>
         </g>
        </g>
        <g data-name="Grupo 38" id="svg_99" transform="translate(4.297 9.101)">
         <path d="m252.9,257.67c-1.048,0 -1.9,0.622 -1.9,1.39s0.849,1.391 1.9,1.391a2.265,2.265 0 0 0 1.346,-0.414a0.508,0.508 0 0 1 0.593,0a2.265,2.265 0 0 0 1.346,0.414c1.048,0 1.9,-0.622 1.9,-1.391s-0.849,-1.39 -1.9,-1.39l-3.285,0z" data-name="Caminho 70" fill="#d4af91" id="svg_102" transform="translate(-251 -257.67)"/>
         <g data-name="Grupo 37" id="svg_100">
          <path d="m252.9,257.67c-1.048,0 -1.9,0.622 -1.9,1.39s0.849,1.391 1.9,1.391a2.265,2.265 0 0 0 1.346,-0.414a0.508,0.508 0 0 1 0.593,0a2.265,2.265 0 0 0 1.346,0.414c1.048,0 1.9,-0.622 1.9,-1.391s-0.849,-1.39 -1.9,-1.39l-3.285,0z" data-name="Caminho 71" fill="rgba(0,0,0,0)" id="svg_101" stroke="rgba(0,0,0,0)" transform="translate(-251 -257.67)"/>
         </g>
        </g>
        <g data-name="Grupo 40" id="svg_95" transform="translate(6.319 8.089)">
         <path d="m268.424,251.482c0,0.538 -0.636,0.822 -1.1,1.031a1.012,1.012 0 0 1 -0.837,0c-0.461,-0.209 -1.1,-0.493 -1.1,-1.031c0,-0.559 0.68,-1.012 1.517,-1.012s1.52,0.452 1.52,1.012z" data-name="Caminho 72" fill="#5d5360" id="svg_98" transform="translate(-265.39 -250.47)"/>
         <g data-name="Grupo 39" id="svg_96">
          <path d="m268.424,251.482c0,0.538 -0.636,0.822 -1.1,1.031a1.012,1.012 0 0 1 -0.837,0c-0.461,-0.209 -1.1,-0.493 -1.1,-1.031c0,-0.559 0.68,-1.012 1.517,-1.012s1.52,0.452 1.52,1.012z" data-name="Caminho 73" fill="rgba(0,0,0,0)" id="svg_97" stroke="rgba(0,0,0,0)" transform="translate(-265.39 -250.47)"/>
         </g>
        </g>
        <g data-name="Grupo 42" id="svg_91" transform="translate(6.32 8.165)">
         <path d="m266.339,251.01c-0.551,0.152 -0.939,0.513 -0.939,0.936c0,0.538 0.637,0.822 1.1,1.031a1.013,1.013 0 0 0 0.837,0c0.1,-0.045 0.207,-0.094 0.313,-0.148c-0.621,-0.11 -1.428,-0.521 -1.5,-1.161a1.259,1.259 0 0 1 0.189,-0.658z" data-name="Caminho 74" fill="#4b3f4e" id="svg_94" transform="translate(-265.4 -251.01)"/>
         <g data-name="Grupo 41" id="svg_92">
          <path d="m266.339,251.01c-0.551,0.152 -0.939,0.513 -0.939,0.936c0,0.538 0.637,0.822 1.1,1.031a1.013,1.013 0 0 0 0.837,0c0.1,-0.045 0.207,-0.094 0.313,-0.148c-0.621,-0.11 -1.428,-0.521 -1.5,-1.161a1.259,1.259 0 0 1 0.189,-0.658z" data-name="Caminho 75" fill="rgba(0,0,0,0)" id="svg_93" stroke="rgba(0,0,0,0)" transform="translate(-265.4 -251.01)"/>
         </g>
        </g>
       </g>
       <g data-name="Grupo 86" id="svg_5" transform="translate(18.367)">
        <g data-name="Grupo 45" id="svg_86" transform="translate(7.705)">
         <path d="m410.954,193.25l0,6.071l-4.984,-2.945l4.245,-3.479q0.74,-0.029 0.739,0.353z" data-name="Caminho 76" fill="#ffc850" id="svg_89" transform="translate(-405.97 -192.895)"/>
         <g data-name="Grupo 44" id="svg_87">
          <path d="m410.954,193.25l0,6.071l-4.984,-2.945l4.245,-3.479q0.74,-0.029 0.739,0.353z" data-name="Caminho 77" fill="rgba(0,0,0,0)" id="svg_88" stroke="rgba(0,0,0,0)" transform="translate(-405.97 -192.895)"/>
         </g>
        </g>
        <g data-name="Grupo 47" id="svg_82" transform="translate(9.201 1.416)">
         <path d="m416.62,205.921q2.276,-2.565 2.528,-2.851a0.29,0.29 0 0 1 0.507,0.193l0,4.453l-3.035,-1.795z" data-name="Caminho 78" fill="#ebaf4b" id="svg_85" transform="translate(-416.62 -202.972)"/>
         <g data-name="Grupo 46" id="svg_83">
          <path d="m416.62,205.921q2.276,-2.565 2.528,-2.851a0.29,0.29 0 0 1 0.507,0.193l0,4.453l-3.035,-1.795z" data-name="Caminho 79" fill="rgba(0,0,0,0)" id="svg_84" stroke="rgba(0,0,0,0)" transform="translate(-416.62 -202.972)"/>
         </g>
        </g>
        <g data-name="Grupo 49" id="svg_78" transform="translate(0.907)">
         <path d="m357.59,193.25l0,6.071l4.984,-2.945l-4.245,-3.479q-0.74,-0.029 -0.739,0.353z" data-name="Caminho 80" fill="#ffc850" id="svg_81" transform="translate(-357.59 -192.895)"/>
         <g data-name="Grupo 48" id="svg_79">
          <path d="m357.59,193.25l0,6.071l4.984,-2.945l-4.245,-3.479q-0.74,-0.029 -0.739,0.353z" data-name="Caminho 81" fill="rgba(0,0,0,0)" id="svg_80" stroke="rgba(0,0,0,0)" transform="translate(-357.59 -192.895)"/>
         </g>
        </g>
        <g data-name="Grupo 51" id="svg_74" transform="translate(1.359 1.416)">
         <path d="m363.845,205.921l-2.529,-2.851a0.289,0.289 0 0 0 -0.506,0.193l0,4.453q0.607,-0.361 3.035,-1.795z" data-name="Caminho 82" fill="#ebaf4b" id="svg_77" transform="translate(-360.81 -202.972)"/>
         <g data-name="Grupo 50" id="svg_75">
          <path d="m363.845,205.921l-2.529,-2.851a0.289,0.289 0 0 0 -0.506,0.193l0,4.453q0.607,-0.361 3.035,-1.795z" data-name="Caminho 83" fill="rgba(0,0,0,0)" id="svg_76" stroke="rgba(0,0,0,0)" transform="translate(-360.81 -202.972)"/>
         </g>
        </g>
        <g data-name="Grupo 53" id="svg_70" transform="translate(0.453 1.669)">
         <path d="m367.049,210.774a6.354,6.354 0 1 1 -6.345,-6a6.183,6.183 0 0 1 6.345,6z" data-name="Caminho 84" fill="#ffdc64" id="svg_73" transform="translate(-354.36 -204.77)"/>
         <g data-name="Grupo 52" id="svg_71">
          <path d="m367.049,210.774a6.354,6.354 0 1 1 -6.345,-6a6.183,6.183 0 0 1 6.345,6z" data-name="Caminho 85" fill="rgba(0,0,0,0)" id="svg_72" stroke="rgba(0,0,0,0)" transform="translate(-354.36 -204.77)"/>
         </g>
        </g>
        <g data-name="Grupo 55" id="svg_66" transform="translate(5.891 11.185)">
         <path d="m394.874,273.406a0.907,0.907 0 0 1 -0.908,0.906l0,0a0.907,0.907 0 0 1 -0.906,-0.906l0,-0.454l0.906,-0.452l0.908,0.452l0,0.454z" data-name="Caminho 86" fill="#ff8087" id="svg_69" transform="translate(-393.06 -272.5)"/>
         <g data-name="Grupo 54" id="svg_67">
          <path d="m394.874,273.406a0.907,0.907 0 0 1 -0.908,0.906l0,0a0.907,0.907 0 0 1 -0.906,-0.906l0,-0.454l0.906,-0.452l0.908,0.452l0,0.454z" data-name="Caminho 87" fill="rgba(0,0,0,0)" id="svg_68" stroke="rgba(0,0,0,0)" transform="translate(-393.06 -272.5)"/>
         </g>
        </g>
        <g data-name="Grupo 57" id="svg_62" transform="translate(6.04 9.305)">
         <path d="m394.377,259.12a0.257,0.257 0 0 0 -0.2,0.419c0.051,0.062 0.451,0.556 0.5,0.618a0.257,0.257 0 0 0 0.4,0c0.049,-0.062 0.45,-0.556 0.5,-0.618a0.257,0.257 0 0 0 -0.2,-0.419l-1,0z" data-name="Caminho 88" fill="#5d5360" id="svg_65" transform="translate(-394.12 -259.12)"/>
         <g data-name="Grupo 56" id="svg_63">
          <path d="m394.377,259.12a0.257,0.257 0 0 0 -0.2,0.419c0.051,0.062 0.451,0.556 0.5,0.618a0.257,0.257 0 0 0 0.4,0c0.049,-0.062 0.45,-0.556 0.5,-0.618a0.257,0.257 0 0 0 -0.2,-0.419l-1,0z" data-name="Caminho 89" fill="rgba(0,0,0,0)" id="svg_64" stroke="rgba(0,0,0,0)" transform="translate(-394.12 -259.12)"/>
         </g>
        </g>
        <g data-name="Grupo 59" id="svg_58" transform="translate(9.092 10.249)">
         <path d="m419.559,267.429a16.108,16.108 0 0 0 -3.535,-1.139a0.227,0.227 0 0 1 0.086,-0.445a16.263,16.263 0 0 1 3.659,1.183a0.226,0.226 0 0 1 -0.105,0.427a0.214,0.214 0 0 1 -0.105,-0.026z" data-name="Caminho 90" fill="#e1a546" id="svg_61" transform="translate(-415.84 -265.84)"/>
         <g data-name="Grupo 58" id="svg_59">
          <path d="m419.559,267.429a16.108,16.108 0 0 0 -3.535,-1.139a0.227,0.227 0 0 1 0.086,-0.445a16.263,16.263 0 0 1 3.659,1.183a0.226,0.226 0 0 1 -0.105,0.427a0.214,0.214 0 0 1 -0.105,-0.026z" data-name="Caminho 91" fill="rgba(0,0,0,0)" id="svg_60" stroke="rgba(0,0,0,0)" transform="translate(-415.84 -265.84)"/>
         </g>
        </g>
        <g data-name="Grupo 61" id="svg_54" transform="translate(9.474 9.536)">
         <path d="m422.4,261.494a16.45,16.45 0 0 0 -3.6,-0.275a0.226,0.226 0 1 1 -0.014,-0.452a16.46,16.46 0 0 1 3.733,0.291a0.226,0.226 0 0 1 0.16,0.277a0.229,0.229 0 0 1 -0.219,0.169a0.213,0.213 0 0 1 -0.06,-0.01z" data-name="Caminho 92" fill="#e1a546" id="svg_57" transform="translate(-418.56 -260.759)"/>
         <g data-name="Grupo 60" id="svg_55">
          <path d="m422.4,261.494a16.45,16.45 0 0 0 -3.6,-0.275a0.226,0.226 0 1 1 -0.014,-0.452a16.46,16.46 0 0 1 3.733,0.291a0.226,0.226 0 0 1 0.16,0.277a0.229,0.229 0 0 1 -0.219,0.169a0.213,0.213 0 0 1 -0.06,-0.01z" data-name="Caminho 93" fill="rgba(0,0,0,0)" id="svg_56" stroke="rgba(0,0,0,0)" transform="translate(-418.56 -260.759)"/>
         </g>
        </g>
        <g data-name="Grupo 63" id="svg_50" transform="translate(0.453 1.973)">
         <path d="m355.946,212.413a6,6 0 0 1 3.733,-5.473a6.115,6.115 0 0 0 -5.32,5.925a6.182,6.182 0 0 0 6.344,6.005a6.607,6.607 0 0 0 2.611,-0.533a6.629,6.629 0 0 1 -1.024,0.079a6.181,6.181 0 0 1 -6.344,-6.003z" data-name="Caminho 94" fill="#ffc850" id="svg_53" transform="translate(-354.36 -206.94)"/>
         <g data-name="Grupo 62" id="svg_51">
          <path d="m355.946,212.413a6,6 0 0 1 3.733,-5.473a6.115,6.115 0 0 0 -5.32,5.925a6.182,6.182 0 0 0 6.344,6.005a6.607,6.607 0 0 0 2.611,-0.533a6.629,6.629 0 0 1 -1.024,0.079a6.181,6.181 0 0 1 -6.344,-6.003z" data-name="Caminho 95" fill="rgba(0,0,0,0)" id="svg_52" stroke="rgba(0,0,0,0)" transform="translate(-354.36 -206.94)"/>
         </g>
        </g>
        <g data-name="Grupo 65" id="svg_46" transform="translate(0.453 10.249)">
         <path d="m354.384,267.334a0.228,0.228 0 0 1 0.1,-0.306a16.262,16.262 0 0 1 3.659,-1.183a0.227,0.227 0 0 1 0.086,0.445a16.109,16.109 0 0 0 -3.535,1.139a0.216,0.216 0 0 1 -0.105,0.025a0.226,0.226 0 0 1 -0.205,-0.12z" data-name="Caminho 96" fill="#e1a546" id="svg_49" transform="translate(-354.359 -265.84)"/>
         <g data-name="Grupo 64" id="svg_47">
          <path d="m354.384,267.334a0.228,0.228 0 0 1 0.1,-0.306a16.262,16.262 0 0 1 3.659,-1.183a0.227,0.227 0 0 1 0.086,0.445a16.109,16.109 0 0 0 -3.535,1.139a0.216,0.216 0 0 1 -0.105,0.025a0.226,0.226 0 0 1 -0.205,-0.12z" data-name="Caminho 97" fill="rgba(0,0,0,0)" id="svg_48" stroke="rgba(0,0,0,0)" transform="translate(-354.359 -265.84)"/>
         </g>
        </g>
        <g data-name="Grupo 67" id="svg_42" transform="translate(0 9.536)">
         <path d="m351.143,261.338a0.226,0.226 0 0 1 0.16,-0.277a16.546,16.546 0 0 1 3.733,-0.291a0.226,0.226 0 1 1 -0.014,0.452a16.448,16.448 0 0 0 -3.6,0.275a0.214,0.214 0 0 1 -0.059,0.008a0.228,0.228 0 0 1 -0.22,-0.167z" data-name="Caminho 98" fill="#e1a546" id="svg_45" transform="translate(-351.135 -260.764)"/>
         <g data-name="Grupo 66" id="svg_43">
          <path d="m351.143,261.338a0.226,0.226 0 0 1 0.16,-0.277a16.546,16.546 0 0 1 3.733,-0.291a0.226,0.226 0 1 1 -0.014,0.452a16.448,16.448 0 0 0 -3.6,0.275a0.214,0.214 0 0 1 -0.059,0.008a0.228,0.228 0 0 1 -0.22,-0.167z" data-name="Caminho 99" fill="rgba(0,0,0,0)" id="svg_44" stroke="rgba(0,0,0,0)" transform="translate(-351.135 -260.764)"/>
         </g>
        </g>
        <g data-name="Grupo 69" id="svg_38" transform="translate(3.4 6.652)">
         <path d="m376.122,242.28a0.8,0.8 0 0 1 -0.792,-0.794l0,-0.452a0.8,0.8 0 0 1 0.792,-0.794l0,0a0.8,0.8 0 0 1 0.792,0.794l0,0.452a0.8,0.8 0 0 1 -0.792,0.794z" data-name="Caminho 100" fill="#4b3f4e" id="svg_41" transform="translate(-375.33 -240.24)"/>
         <g data-name="Grupo 68" id="svg_39">
          <path d="m376.122,242.28a0.8,0.8 0 0 1 -0.792,-0.794l0,-0.452a0.8,0.8 0 0 1 0.792,-0.794l0,0a0.8,0.8 0 0 1 0.792,0.794l0,0.452a0.8,0.8 0 0 1 -0.792,0.794z" data-name="Caminho 101" fill="rgba(0,0,0,0)" id="svg_40" stroke="rgba(0,0,0,0)" transform="translate(-375.33 -240.24)"/>
         </g>
        </g>
        <g data-name="Grupo 71" id="svg_34" transform="translate(4.078 6.652)">
         <path d="m380.16,240.253l0,1.121a0.453,0.453 0 0 0 0.906,0l0,-0.34a0.8,0.8 0 0 0 -0.793,-0.794a0.759,0.759 0 0 0 -0.113,0.013z" data-name="Caminho 102" fill="#5d5360" id="svg_37" transform="translate(-380.16 -240.24)"/>
         <g data-name="Grupo 70" id="svg_35">
          <path d="m380.16,240.253l0,1.121a0.453,0.453 0 0 0 0.906,0l0,-0.34a0.8,0.8 0 0 0 -0.793,-0.794a0.759,0.759 0 0 0 -0.113,0.013z" data-name="Caminho 103" fill="rgba(0,0,0,0)" id="svg_36" stroke="rgba(0,0,0,0)" transform="translate(-380.16 -240.24)"/>
         </g>
        </g>
        <g data-name="Grupo 73" id="svg_30" transform="translate(3.852 6.88)">
         <path d="m378.89,241.86a0.34,0.34 0 1 0 0.34,0.34a0.339,0.339 0 0 0 -0.34,-0.34z" data-name="Caminho 104" fill="#fff" id="svg_33" transform="translate(-378.55 -241.86)"/>
         <g data-name="Grupo 72" id="svg_31">
          <path d="m378.89,241.86a0.34,0.34 0 1 0 0.34,0.34a0.339,0.339 0 0 0 -0.34,-0.34z" data-name="Caminho 105" fill="rgba(0,0,0,0)" id="svg_32" stroke="rgba(0,0,0,0)" transform="translate(-378.55 -241.86)"/>
         </g>
        </g>
        <g data-name="Grupo 75" id="svg_26" transform="translate(8.611 6.652)">
         <path d="m413.212,242.28a0.8,0.8 0 0 1 -0.792,-0.794l0,-0.452a0.8,0.8 0 0 1 0.792,-0.794l0,0a0.8,0.8 0 0 1 0.792,0.794l0,0.452a0.8,0.8 0 0 1 -0.792,0.794z" data-name="Caminho 106" fill="#4b3f4e" id="svg_29" transform="translate(-412.42 -240.24)"/>
         <g data-name="Grupo 74" id="svg_27">
          <path d="m413.212,242.28a0.8,0.8 0 0 1 -0.792,-0.794l0,-0.452a0.8,0.8 0 0 1 0.792,-0.794l0,0a0.8,0.8 0 0 1 0.792,0.794l0,0.452a0.8,0.8 0 0 1 -0.792,0.794z" data-name="Caminho 107" fill="rgba(0,0,0,0)" id="svg_28" stroke="rgba(0,0,0,0)" transform="translate(-412.42 -240.24)"/>
         </g>
        </g>
        <g data-name="Grupo 77" id="svg_22" transform="translate(9.29 6.652)">
         <path d="m417.25,240.253l0,1.121a0.453,0.453 0 0 0 0.906,0l0,-0.34a0.8,0.8 0 0 0 -0.792,-0.794a0.759,0.759 0 0 0 -0.114,0.013z" data-name="Caminho 108" fill="#5d5360" id="svg_25" transform="translate(-417.25 -240.24)"/>
         <g data-name="Grupo 76" id="svg_23">
          <path d="m417.25,240.253l0,1.121a0.453,0.453 0 0 0 0.906,0l0,-0.34a0.8,0.8 0 0 0 -0.792,-0.794a0.759,0.759 0 0 0 -0.114,0.013z" data-name="Caminho 109" fill="rgba(0,0,0,0)" id="svg_24" stroke="rgba(0,0,0,0)" transform="translate(-417.25 -240.24)"/>
         </g>
        </g>
        <g data-name="Grupo 79" id="svg_18" transform="translate(9.064 6.88)">
         <path d="m415.98,241.86a0.34,0.34 0 1 0 0.34,0.34a0.339,0.339 0 0 0 -0.34,-0.34z" data-name="Caminho 110" fill="#fff" id="svg_21" transform="translate(-415.64 -241.86)"/>
         <g data-name="Grupo 78" id="svg_19">
          <path d="m415.98,241.86a0.34,0.34 0 1 0 0.34,0.34a0.339,0.339 0 0 0 -0.34,-0.34z" data-name="Caminho 111" fill="rgba(0,0,0,0)" id="svg_20" stroke="rgba(0,0,0,0)" transform="translate(-415.64 -241.86)"/>
         </g>
        </g>
        <g data-name="Grupo 81" id="svg_14" transform="translate(6.04 9.305)">
         <path d="m394.552,259.176c-0.008,-0.018 -0.014,-0.038 -0.021,-0.056l-0.155,0a0.257,0.257 0 0 0 -0.2,0.419c0.051,0.062 0.451,0.556 0.5,0.618a0.254,0.254 0 0 0 0.379,0.017l0,-0.007l-0.503,-0.991z" data-name="Caminho 112" fill="#4b3f4e" id="svg_17" transform="translate(-394.12 -259.12)"/>
         <g data-name="Grupo 80" id="svg_15">
          <path d="m394.552,259.176c-0.008,-0.018 -0.014,-0.038 -0.021,-0.056l-0.155,0a0.257,0.257 0 0 0 -0.2,0.419c0.051,0.062 0.451,0.556 0.5,0.618a0.254,0.254 0 0 0 0.379,0.017l0,-0.007l-0.503,-0.991z" data-name="Caminho 113" fill="rgba(0,0,0,0)" id="svg_16" stroke="rgba(0,0,0,0)" transform="translate(-394.12 -259.12)"/>
         </g>
        </g>
        <g data-name="Grupo 83" id="svg_10" transform="translate(5.891 11.185)">
         <path d="m393.06,272.952l0,0.454a0.923,0.923 0 0 0 0.027,0.208a2.041,2.041 0 0 0 0.653,-0.2l0,0.214a0.227,0.227 0 0 0 0.454,0l0,-0.214a2.041,2.041 0 0 0 0.653,0.2a0.927,0.927 0 0 0 0.027,-0.208l0,-0.454l-0.908,-0.452l-0.906,0.452z" data-name="Caminho 114" fill="#e6646e" id="svg_13" transform="translate(-393.06 -272.5)"/>
         <g data-name="Grupo 82" id="svg_11">
          <path d="m393.06,272.952l0,0.454a0.923,0.923 0 0 0 0.027,0.208a2.041,2.041 0 0 0 0.653,-0.2l0,0.214a0.227,0.227 0 0 0 0.454,0l0,-0.214a2.041,2.041 0 0 0 0.653,0.2a0.927,0.927 0 0 0 0.027,-0.208l0,-0.454l-0.908,-0.452l-0.906,0.452z" data-name="Caminho 115" fill="rgba(0,0,0,0)" id="svg_12" stroke="rgba(0,0,0,0)" transform="translate(-393.06 -272.5)"/>
         </g>
        </g>
        <g data-name="Grupo 85" id="svg_6" transform="translate(4.532 11.063)">
         <path d="m385.895,272.155a0.436,0.436 0 0 0 -0.479,0a1.584,1.584 0 0 1 -1.952,-0.131a0.227,0.227 0 0 1 0.3,-0.337a1.152,1.152 0 0 0 1.392,0.094a0.884,0.884 0 0 1 0.991,0a1.152,1.152 0 0 0 1.392,-0.094a0.226,0.226 0 1 1 0.3,0.337a1.582,1.582 0 0 1 -1.95,0.131l0.006,0z" data-name="Caminho 116" fill="#ebaf4b" id="svg_9" transform="translate(-383.389 -271.63)"/>
         <g data-name="Grupo 84" id="svg_7">
          <path d="m385.895,272.155a0.436,0.436 0 0 0 -0.479,0a1.584,1.584 0 0 1 -1.952,-0.131a0.227,0.227 0 0 1 0.3,-0.337a1.152,1.152 0 0 0 1.392,0.094a0.884,0.884 0 0 1 0.991,0a1.152,1.152 0 0 0 1.392,-0.094a0.226,0.226 0 1 1 0.3,0.337a1.582,1.582 0 0 1 -1.95,0.131l0.006,0z" data-name="Caminho 117" fill="rgba(0,0,0,0)" id="svg_8" stroke="rgba(0,0,0,0)" transform="translate(-383.389 -271.63)"/>
         </g>
        </g>
       </g>
      </g>
     </g>
    </g>
   </g>
  </symbol>
 </defs>
 <g class="layer">
  <title>Layer 1</title>
  <use id="svg_176" transform="matrix(1.37931 0 0 1.37931 0 0)" x="-67.425032" xlink:href="#svg_175" y="10.149977"/>
  <g id="svg_177"/>
 </g>
</svg>